<svg id="Calque_2" data-name="Calque 2" xmlns="http://www.w3.org/2000/svg" viewBox="0 0 172.42 243.9"><defs><style>.cls-1{fill:#ee7558;}.cls-2{fill:#69c0ad;}.cls-3{fill:#d42778;}.cls-4{fill:#fdc307;}</style></defs><title>logo</title><path class="cls-1" d="M296.62,228.53c4.14-1.2,8.66,2.49,17.7,9.87,9.29,7.59,16.95,13.84,17.7,23.49.11,1.41.69,8.88-4.42,14-4.22,4.19-9.89,4.34-12.94,4.43-8,.22-17.5-3.2-23.15-10.56C280.66,255.59,287.4,231.2,296.62,228.53Z" transform="translate(-159.68 -132.37)"/><path class="cls-1" d="M275.85,198.91c-19.81-9-30.06-13.83-36.76-25.19-1.71-2.89-6.71-11.35-3.41-16,2.79-3.92,10.3-3.46,14.64-2.38,9.82,2.45,14.91,10.92,16.34,9.87s-4.13-7-3.75-15.32c.26-5.47,3-12,8.18-15.32,8.94-5.67,21.26,1,26.89,4.09,4.13,2.25,22.2,12.07,23.49,30.3.72,10.22-4.2,18.13-6.47,21.78-2.75,4.42-7.45,12-15.66,14.3C295.83,206,291.62,206.09,275.85,198.91Z" transform="translate(-159.68 -132.37)"/><path class="cls-2" d="M203.92,304.92l10,56.53c.66,3.95,6.46,11.13,12.73,12.94,7.71,2.22,34.42,2,49.65,1.67a24.6,24.6,0,0,0,20.45-11.4,13.28,13.28,0,0,0,2.12-5.18L305,304.35s-3.32,30.82-20.42,38-40.85,11.74-55.41.51S203.92,304.92,203.92,304.92Z" transform="translate(-159.68 -132.37)"/><path class="cls-3" d="M262.57,227.17c-2.39-4.82-6-7.51-29.61-18.38-19.44-9-29.27-13.45-34.73-13.62-15.77-.5-36.92,7.53-38.46,20.43-1.2,10,9.7,20.91,20.42,24.85,14.38,5.27,28.69-1.9,29.51.38,1.05,2.92-24.68,8.72-31.89,27.53-2.69,7-3.16,16.78,1.7,23.83,8.46,12.27,29.12,10.7,39.83,7.83,27.71-7.41,38.39-36.79,40.85-43.57C263.47,247.42,267.34,236.78,262.57,227.17Z" transform="translate(-159.68 -132.37)"/><path class="cls-4" d="M204.19,280c9.08-27.13,43-23.21,54.13-52.08,6.78-17.59-1.63-29.88,7.66-36.51,11.11-8,32,3.29,37.79,6.38,6.25,3.35,15.29,8.37,20.68,18.89,5.81,11.37,4.59,23.75,3.32,24-.91.18-1.34-5.9-6.64-11.23-3.66-3.68-10.15-7.51-14-5.36-2.57,1.41-3.21,5-3.58,8.93-1.26,13.59,1.76,22.55,3.06,31.92.37,2.65,0,10.36-.76,25.78-1.59,32.48-3.2,37.06-4.85,40.6a52.22,52.22,0,0,1-18.13,20.94c-1.42.93-24.54,15.61-47,5.1-15.91-7.45-21.7-23-26.55-36C204.67,309,199.32,294.59,204.19,280Z" transform="translate(-159.68 -132.37)"/></svg>